HIERARCHY
ROOT Hips
{
  OFFSET 5.80788e-005 67.184 3.4734
  CHANNELS 6 Xposition Yposition Zposition Zrotation Xrotation Yrotation
  JOINT Chest
  {
    OFFSET 0 8.7983 -4.7612
    CHANNELS 3 Zrotation Xrotation Yrotation
    JOINT Chest2
    {
      OFFSET 0 8.0291 0.4195
      CHANNELS 3 Zrotation Xrotation Yrotation
      JOINT Chest3
      {
        OFFSET 0 9.9351 -2.2114
        CHANNELS 3 Zrotation Xrotation Yrotation
        JOINT Neck
        {
          OFFSET 0 22.3885 -0.4656
          CHANNELS 3 Zrotation Xrotation Yrotation
          JOINT Head
          {
            OFFSET -0.0001 12.643 3.4389
            CHANNELS 3 Zrotation Xrotation Yrotation
            End Site
            {
              OFFSET 0.0001 17.6655 0.5274
            }
          }
        }
        JOINT LeftCollar
        {
          OFFSET 2.2603 21.606 7.4023
          CHANNELS 3 Zrotation Xrotation Yrotation
          JOINT LeftShoulder
          {
            OFFSET 13.5163 -1.1332 -5.0146
            CHANNELS 3 Zrotation Xrotation Yrotation
            JOINT LeftElbow
            {
              OFFSET -0.0995 -28.05 -0.2431
              CHANNELS 3 Zrotation Xrotation Yrotation
              JOINT LeftWrist
              {
                OFFSET 0.0679 -23.3996 -0.1402
                CHANNELS 3 Zrotation Xrotation Yrotation
                JOINT LeftFinger1
                {
                  OFFSET 0.7932 -9.069 2.5189
                  CHANNELS 3 Zrotation Xrotation Yrotation
                  JOINT LeftFinger11
                  {
                    OFFSET -0.8272 -3.3923 0.5977
                    CHANNELS 3 Zrotation Xrotation Yrotation
                    JOINT LeftFinger12
                    {
                      OFFSET -0.5649 -2.3158 0.4082
                      CHANNELS 3 Zrotation Xrotation Yrotation
                      End Site
                      {
                        OFFSET -0.4919 -1.6479 0.2673
                      }
                    }
                  }
                }
                JOINT LeftFinger2
                {
                  OFFSET 0.9159 -9.2044 0.2193
                  CHANNELS 3 Zrotation Xrotation Yrotation
                  JOINT LeftFinger21
                  {
                    OFFSET 0.0117 -4.1944 -0.0248
                    CHANNELS 3 Zrotation Xrotation Yrotation
                    JOINT LeftFinger22
                    {
                      OFFSET 0.0071 -2.3249 -0.0142
                      CHANNELS 3 Zrotation Xrotation Yrotation
                      End Site
                      {
                        OFFSET -0.1475 -2.0882 0.0028
                      }
                    }
                  }
                }
                JOINT LeftFinger3
                {
                  OFFSET 0.6113 -8.7231 -2.0637
                  CHANNELS 3 Zrotation Xrotation Yrotation
                  JOINT LeftFinger31
                  {
                    OFFSET -0.1927 -3.8059 -0.2383
                    CHANNELS 3 Zrotation Xrotation Yrotation
                    JOINT LeftFinger32
                    {
                      OFFSET -0.1091 -2.1688 -0.1362
                      CHANNELS 3 Zrotation Xrotation Yrotation
                      End Site
                      {
                        OFFSET -0.2358 -1.9176 -0.0906
                      }
                    }
                  }
                }
                JOINT LeftFinger4
                {
                  OFFSET -0.6151 -8.0947 -3.5641
                  CHANNELS 3 Zrotation Xrotation Yrotation
                  JOINT LeftFinger41
                  {
                    OFFSET -0.4882 -2.341 -0.6462
                    CHANNELS 3 Zrotation Xrotation Yrotation
                    JOINT LeftFinger42
                    {
                      OFFSET -0.3575 -1.7167 -0.4742
                      CHANNELS 3 Zrotation Xrotation Yrotation
                      End Site
                      {
                        OFFSET -0.4187 -1.5237 -0.3496
                      }
                    }
                  }
                }
                JOINT LeftFinger0
                {
                  OFFSET -1.42 -1.8761 1.4223
                  CHANNELS 3 Zrotation Xrotation Yrotation
                  JOINT LeftFinger01
                  {
                    OFFSET -1.1471 -3.4929 2.6334
                    CHANNELS 3 Zrotation Xrotation Yrotation
                    JOINT LeftFinger02
                    {
                      OFFSET -0.823 -2.3 1.6571
                      CHANNELS 3 Zrotation Xrotation Yrotation
                      End Site
                      {
                        OFFSET -0.5822 -1.6914 1.1582
                      }
                    }
                  }
                }
              }
            }
          }
        }
        JOINT RightCollar
        {
          OFFSET -2.2603 21.606 7.4023
          CHANNELS 3 Zrotation Xrotation Yrotation
          JOINT RightShoulder
          {
            OFFSET -13.5187 -1.1334 -5.0155
            CHANNELS 3 Zrotation Xrotation Yrotation
            JOINT RightElbow
            {
              OFFSET 0.0994 -28.0499 -0.2431
              CHANNELS 3 Zrotation Xrotation Yrotation
              JOINT RightWrist
              {
                OFFSET -0.0679 -23.3996 -0.1402
                CHANNELS 3 Zrotation Xrotation Yrotation
                JOINT RightFinger1
                {
                  OFFSET -0.7932 -9.0691 2.5189
                  CHANNELS 3 Zrotation Xrotation Yrotation
                  JOINT RightFinger11
                  {
                    OFFSET 0.8272 -3.3923 0.5977
                    CHANNELS 3 Zrotation Xrotation Yrotation
                    JOINT RightFinger12
                    {
                      OFFSET 0.565 -2.3158 0.4082
                      CHANNELS 3 Zrotation Xrotation Yrotation
                      End Site
                      {
                        OFFSET 0.4919 -1.6479 0.2673
                      }
                    }
                  }
                }
                JOINT RightFinger2
                {
                  OFFSET -0.916 -9.2044 0.2193
                  CHANNELS 3 Zrotation Xrotation Yrotation
                  JOINT RightFinger21
                  {
                    OFFSET -0.0117 -4.1944 -0.0248
                    CHANNELS 3 Zrotation Xrotation Yrotation
                    JOINT RightFinger22
                    {
                      OFFSET -0.0071 -2.3249 -0.0142
                      CHANNELS 3 Zrotation Xrotation Yrotation
                      End Site
                      {
                        OFFSET 0.1475 -2.0882 0.0028
                      }
                    }
                  }
                }
                JOINT RightFinger3
                {
                  OFFSET -0.6113 -8.7231 -2.0637
                  CHANNELS 3 Zrotation Xrotation Yrotation
                  JOINT RightFinger31
                  {
                    OFFSET 0.1927 -3.8059 -0.2383
                    CHANNELS 3 Zrotation Xrotation Yrotation
                    JOINT RightFinger32
                    {
                      OFFSET 0.1091 -2.1688 -0.1362
                      CHANNELS 3 Zrotation Xrotation Yrotation
                      End Site
                      {
                        OFFSET 0.2358 -1.9176 -0.0906
                      }
                    }
                  }
                }
                JOINT RightFinger4
                {
                  OFFSET 0.6151 -8.0947 -3.564
                  CHANNELS 3 Zrotation Xrotation Yrotation
                  JOINT RightFinger41
                  {
                    OFFSET 0.4882 -2.341 -0.6462
                    CHANNELS 3 Zrotation Xrotation Yrotation
                    JOINT RightFinger42
                    {
                      OFFSET 0.3574 -1.7166 -0.4742
                      CHANNELS 3 Zrotation Xrotation Yrotation
                      End Site
                      {
                        OFFSET 0.4187 -1.5237 -0.3496
                      }
                    }
                  }
                }
                JOINT RightFinger0
                {
                  OFFSET 1.4199 -1.8761 1.4221
                  CHANNELS 3 Zrotation Xrotation Yrotation
                  JOINT RightFinger01
                  {
                    OFFSET 1.1472 -3.4929 2.6336
                    CHANNELS 3 Zrotation Xrotation Yrotation
                    JOINT RightFinger02
                    {
                      OFFSET 0.8229 -2.3 1.6571
                      CHANNELS 3 Zrotation Xrotation Yrotation
                      End Site
                      {
                        OFFSET 0.5822 -1.6914 1.1582
                      }
                    }
                  }
                }
              }
            }
          }
        }
      }
    }
  }
  JOINT RightHip
  {
    OFFSET -9.412 3.9771 -0.7758
    CHANNELS 3 Zrotation Xrotation Yrotation
    JOINT RightKnee
    {
      OFFSET -0.7531 -40.938 0
      CHANNELS 3 Zrotation Xrotation Yrotation
      JOINT RightAnkle
      {
        OFFSET 0 -40.1986 0
        CHANNELS 3 Zrotation Xrotation Yrotation
        JOINT RightToe
        {
          OFFSET 0 -4.4182 9.239
          CHANNELS 3 Zrotation Xrotation Yrotation
          End Site
          {
            OFFSET 0 0 6.1981
          }
        }
      }
    }
  }
  JOINT LeftHip
  {
    OFFSET 9.4119 3.9773 -0.7758
    CHANNELS 3 Zrotation Xrotation Yrotation
    JOINT LeftKnee
    {
      OFFSET 0.7532 -40.9383 0
      CHANNELS 3 Zrotation Xrotation Yrotation
      JOINT LeftAnkle
      {
        OFFSET 0 -40.1986 0
        CHANNELS 3 Zrotation Xrotation Yrotation
        JOINT LeftToe
        {
          OFFSET 0 -4.4182 9.239
          CHANNELS 3 Zrotation Xrotation Yrotation
          End Site
          {
            OFFSET 0 0 6.1981
          }
        }
      }
    }
  }
}
MOTION
Frames:	6
Frame Time:	0.0333333
5.80788e-005 67.184 3.4734 0 0 -0 0 0 -0 0 0 -0 0 0 -0 0 0 -0.00281655 0 0 -3.88251e-019 0 0 -12.5042 88.1195 14.2451 10.6914 -0.00158754 -0.00239508 0.000739668 -9.06993e-005 7.14226e-005 -1.93289e-006 -3.97569e-016 1.98785e-016 -1.59028e-015 -8.44835e-016 7.95139e-016 -1.59028e-015 -6.4605e-016 5.96354e-016 -1.59028e-015 -3.97569e-016 1.98785e-016 -1.59028e-015 -0.0128177 0.0023255 8.67301e-005 -2.48481e-016 -1.98785e-016 -1.59028e-015 -3.97569e-016 1.98785e-016 -1.59028e-015 -0.0160552 0.00299625 0.000857698 -2.98177e-016 -1.98785e-016 -0 -3.97569e-016 1.98785e-016 -1.59028e-015 -0.0125931 0.00312297 0.00282863 -4.47266e-016 -1.98785e-016 -0 -3.97569e-016 1.98785e-016 -1.59028e-015 -8.44835e-016 7.95139e-016 -1.59028e-015 -6.4605e-016 5.96354e-016 -1.59028e-015 -0.865636 0.165862 7.03578 -88.0329 10.2057 -10.5567 0.00155928 -0.00248776 -0.000789398 7.19575e-005 3.87743e-005 1.23462e-005 -1.98785e-016 -3.97569e-016 1.59028e-015 1.10348e-032 -3.97569e-016 1.59028e-015 0 0 -0 -1.98785e-016 -3.97569e-016 1.59028e-015 0.0129542 0.002318 -8.62175e-005 1.98785e-016 3.97569e-016 -0 -1.98785e-016 -3.97569e-016 1.59028e-015 0.0163454 0.00303787 -0.000874706 -9.93923e-017 7.95139e-016 1.59028e-015 -1.98785e-016 -3.97569e-016 1.59028e-015 0.0145763 0.00368027 -0.00326097 9.93923e-017 1.59028e-015 -0 -1.98785e-016 -3.97569e-016 1.59028e-015 1.10348e-032 -3.97569e-016 1.59028e-015 0 0 -0 3.42485 1.36937 -0.0640303 0.000136572 0.69354 0.00145564 -3.42573 -2.06297 -0.0607933 -3.19502e-024 0 -1.48106e-024 -3.42498 1.36123 0.0639712 -6.769e-005 0.712612 -0.0012277 3.42582 -2.07388 0.0612819 2.55305e-023 0 -2.31416e-026 
4.26097 34.8756 11.3934 3.28705e-008 -4.18828e-007 -30.3706 2.16676 -0.693093 0.0220545 4.33425 -1.38486 0.0703128 4.33426 -1.38485 0.0703061 -0.000183044 15.5532 6.70954e-006 1.27402 12.8296 -13.0098 -27.1328 2.1202 -11.2007 64.8942 4.82869 30.7961 -23.1095 4.14914 -18.4808 14.5936 -2.53517 0.870051 -2.51128e-006 2.96746e-006 9.02975e-007 -3.18055e-015 -4.15366e-007 -1.59028e-015 3.18055e-015 4.15366e-007 -0 -2.51128e-006 2.96746e-006 9.02975e-007 -0.0127693 0.0023165 8.95519e-005 -7.95139e-015 2.88964e-006 3.18055e-015 -2.51128e-006 2.96746e-006 9.02975e-007 -0.0160379 0.00299746 0.000863253 -7.06868e-007 -4.35999e-007 3.63462e-006 -2.51128e-006 2.96746e-006 9.02975e-007 -0.0125847 0.00311805 0.00283318 -1.60924e-006 4.07869e-006 2.26883e-006 -2.51128e-006 2.96746e-006 9.02975e-007 -3.18055e-015 -4.15366e-007 -1.59028e-015 3.18055e-015 4.15366e-007 -0 3.70795 0.893617 3.31592 -67.3905 21.8915 -14.8729 23.9526 -33.6773 -14.4226 5.09699 0.934889 0.283177 -1.19752e-005 -2.32453e-005 1.97229e-006 1.22308e-005 1.96136e-005 -2.05086e-007 7.66764e-007 -4.8353e-007 5.30164e-006 -1.19752e-005 -2.32453e-005 1.97229e-006 0.0129669 0.00233252 -8.3821e-005 -9.944e-007 -1.9691e-006 2.80664e-006 -1.19752e-005 -2.32453e-005 1.97229e-006 0.0162889 0.00304365 -0.000857362 7.12335e-006 2.77379e-006 2.02895e-006 -1.19752e-005 -2.32453e-005 1.97229e-006 0.0146294 0.00370977 -0.00326498 -8.99322e-007 1.59324e-006 7.40078e-007 -1.19752e-005 -2.32453e-005 1.97229e-006 1.22308e-005 1.96136e-005 -2.05086e-007 7.66764e-007 -4.8353e-007 5.30164e-006 -11.2012 -14.7255 -10.3602 -142.208 82.7578 146.35 -11.392 33.7214 -6.70049 -3.58025e-007 3.25034e-007 7.49919e-007 11.1983 -14.7258 10.3571 142.215 82.7584 -146.36 11.3902 33.7209 6.69862 -3.03413e-006 4.3089e-006 -5.86847e-006 
6.40383 20.3725 14.7754 0 0 -44.0374 3.13111 -0.960816 0.0196065 6.26387 -1.91913 0.0916825 6.26389 -1.91913 0.0916953 2.951e-005 22.5521 -4.83559e-006 3.79055 18.1611 -19.3699 -39.3738 3.07334 -10.614 54.9829 -0.00733065 39.5549 -33.4399 5.76031 -27.1194 21.1847 -3.57033 1.48978 9.54166e-015 -3.18055e-015 9.54166e-015 3.18055e-015 3.18055e-015 2.22639e-014 9.54166e-015 0 6.36111e-015 9.54166e-015 -3.18055e-015 9.54166e-015 -0.0128363 0.00233951 0.000107179 -2.51732e-006 -1.91464e-006 4.24123e-006 9.54166e-015 -3.18055e-015 9.54166e-015 -0.0160877 0.00301812 0.000870965 -5.76726e-006 -3.46057e-008 2.97461e-006 9.54166e-015 -3.18055e-015 9.54166e-015 -0.0125638 0.00312215 0.00282829 1.12496e-006 7.22883e-006 9.30299e-006 9.54166e-015 -3.18055e-015 9.54166e-015 3.18055e-015 3.18055e-015 2.22639e-014 9.54166e-015 0 6.36111e-015 5.7277 1.21993 1.73237 -57.8705 26.7631 -16.8507 37.1112 -48.7059 -18.0596 7.36024 1.30263 0.200401 -9.92459e-006 -4.30474e-006 -9.4953e-006 9.92459e-006 4.30474e-006 9.4953e-006 -1.31093e-005 -1.36327e-005 -1.59825e-005 -9.92459e-006 -4.30474e-006 -9.4953e-006 0.0129508 0.00232372 -8.62405e-005 -9.56879e-006 -9.52777e-006 -6.43808e-006 -9.92459e-006 -4.30474e-006 -9.4953e-006 0.0163465 0.00304502 -0.000867119 -2.92459e-006 -5.57966e-006 -7.51911e-006 -9.92459e-006 -4.30474e-006 -9.4953e-006 0.0145788 0.00367678 -0.00325941 -8.94752e-006 1.58872e-006 -6.98991e-006 -9.92459e-006 -4.30474e-006 -9.4953e-006 9.92459e-006 4.30474e-006 9.4953e-006 -1.31093e-005 -1.36327e-005 -1.59825e-005 -19.335 -21.4126 -16.5737 -166.801 42.1833 169.126 -9.26444 51.0513 -14.6499 4.1019e-006 -3.34909e-006 -8.95167e-007 19.3306 -21.4133 16.5686 166.798 42.183 -169.129 9.26386 51.0508 14.6456 1.02849e-006 2.74737e-005 1.14143e-005 
5.91472 23.5923 14.0299 -6.97642e-007 4.29808e-007 -41.0003 2.89141 -0.809231 0.030377 5.78411 -1.6159 0.101545 5.78411 -1.6159 0.101535 -1.3659e-005 20.9968 -1.24497e-005 3.06493 17.2311 -17.8985 -36.6519 2.8616 -10.7445 57.1626 1.0841 37.6252 -31.0642 5.41487 -24.9214 19.7173 -3.35222 1.32774 2.73651e-006 -1.70805e-008 9.47467e-007 -1.71733e-006 8.41621e-006 -4.45804e-006 3.18055e-015 -2.85945e-006 6.36111e-015 2.73651e-006 -1.70805e-008 9.47467e-007 -0.0128063 0.00232205 7.29784e-005 7.06225e-031 3.18055e-015 -1.27222e-014 2.73651e-006 -1.70805e-008 9.47467e-007 -0.0159941 0.00298586 0.000836796 1.71729e-006 -4.99107e-006 4.45812e-006 2.73651e-006 -1.70805e-008 9.47467e-007 -0.0125306 0.00310674 0.00279816 1.43428e-006 -1.88203e-006 -6.56425e-007 2.73651e-006 -1.70805e-008 9.47467e-007 -1.71733e-006 8.41621e-006 -4.45804e-006 3.18055e-015 -2.85945e-006 6.36111e-015 5.12571 1.15069 2.28922 -60.2873 25.458 -16.3144 33.5752 -45.6703 -17.8745 6.78969 1.08895 -0.18689 3.72006e-006 -6.61873e-006 3.49216e-008 9.01219e-006 2.1771e-005 8.58992e-006 1.38024e-006 5.57897e-006 5.40918e-006 3.72006e-006 -6.61873e-006 3.49216e-008 0.0129334 0.00232452 -8.07397e-005 9.82912e-006 2.42021e-005 8.97919e-006 3.72006e-006 -6.61873e-006 3.49216e-008 0.016381 0.00305008 -0.000855518 4.72831e-006 1.01889e-005 3.53501e-006 3.72006e-006 -6.61873e-006 3.49216e-008 0.014654 0.00370951 -0.00326323 2.90364e-006 -5.41238e-006 -3.54123e-007 3.72006e-006 -6.61873e-006 3.49216e-008 9.01219e-006 2.1771e-005 8.58992e-006 1.38024e-006 5.57897e-006 5.40918e-006 -17.3981 -19.9096 -15.034 -165.6 51.2666 168.719 -10.3393 47.1557 -12.3082 -1.04302e-006 6.06042e-007 2.14605e-006 17.394 -19.9102 15.0294 165.599 51.2664 -168.722 10.3382 47.1553 12.3047 -7.65338e-007 1.03989e-006 3.37166e-007 
5.91472 23.5923 14.0299 1.216e-007 -5.61619e-008 -41.0003 2.87056 -0.733613 0.0380597 5.74231 -1.4644 0.112833 5.74232 -1.4644 0.112828 5.19633e-005 20.9968 -6.59613e-006 3.01889 17.4018 -17.8851 -36.6518 2.86158 -10.7445 57.1626 1.08416 37.6253 -30.9992 5.40423 -24.7289 19.7167 -3.35549 1.31846 2.2826e-006 7.63423e-006 7.71815e-006 -3.18055e-015 9.54166e-015 3.18055e-015 -6.36111e-015 6.36111e-015 -0 2.2826e-006 7.63423e-006 7.71815e-006 -0.0128085 0.00232999 9.77072e-005 1.83026e-006 1.12425e-006 2.21716e-006 2.2826e-006 7.63423e-006 7.71815e-006 -0.0161074 0.00301272 0.000869283 -3.18055e-015 3.18055e-015 -3.18055e-015 2.2826e-006 7.63423e-006 7.71815e-006 -0.0125697 0.00312893 0.00283088 1.68156e-006 -4.16516e-006 4.46996e-006 2.2826e-006 7.63423e-006 7.71815e-006 -3.18055e-015 9.54166e-015 3.18055e-015 -6.36111e-015 6.36111e-015 -0 5.00163 1.15278 2.457 -60.5183 25.2641 -16.2397 33.3059 -45.8942 -18.1362 6.73349 0.981487 -0.520749 6.36111e-015 8.54774e-015 7.15625e-015 7.95139e-015 -5.96354e-016 5.56597e-015 2.88067e-006 3.87365e-007 7.38902e-007 6.36111e-015 8.54774e-015 7.15625e-015 0.0129338 0.00232775 -7.94997e-005 -3.78098e-006 -8.23071e-006 2.33987e-006 6.36111e-015 8.54774e-015 7.15625e-015 0.0163375 0.00303799 -0.000885901 -1.78757e-006 -5.29084e-006 8.32925e-006 6.36111e-015 8.54774e-015 7.15625e-015 0.0146189 0.00369273 -0.00326205 2.33964e-006 6.6377e-007 1.12145e-007 6.36111e-015 8.54774e-015 7.15625e-015 7.95139e-015 -5.96354e-016 5.56597e-015 2.88067e-006 3.87365e-007 7.38902e-007 -17.3981 -19.9096 -15.034 -165.6 51.2667 168.719 -10.3394 47.1558 -12.3081 -1.32071e-006 2.49599e-006 3.95497e-006 17.394 -19.9102 15.0294 165.599 51.2663 -168.722 10.3382 47.1552 12.3047 5.77362e-007 1.13473e-005 1.88245e-006 
5.91472 23.5923 14.0299 0 0 -41.0003 2.84967 -0.65789 0.0456609 5.70043 -1.3127 0.123982 5.70044 -1.3127 0.123976 -6.18567e-006 20.9968 -5.07189e-006 2.97276 17.5726 -17.8716 -36.6519 2.8616 -10.7445 57.1626 1.08411 37.6252 -30.9334 5.39358 -24.5367 19.7162 -3.35878 1.30922 -3.18055e-015 3.18055e-015 6.36111e-015 3.67515e-007 -1.26742e-006 2.87292e-006 1.27829e-006 -2.93732e-006 1.60857e-006 -3.18055e-015 3.18055e-015 6.36111e-015 -0.012811 0.00232421 8.92757e-005 3.66842e-007 -1.6578e-007 2.87293e-006 -3.18055e-015 3.18055e-015 6.36111e-015 -0.0160424 0.00299044 0.000859932 1.64578e-006 -5.00872e-006 4.48156e-006 -3.18055e-015 3.18055e-015 6.36111e-015 -0.0125514 0.00311472 0.00282621 1.81185e-006 -2.95188e-007 2.23652e-006 -3.18055e-015 3.18055e-015 6.36111e-015 3.67515e-007 -1.26742e-006 2.87292e-006 1.27829e-006 -2.93732e-006 1.60857e-006 4.87738 1.15453 2.62482 -60.7489 25.0697 -16.1659 33.0338 -46.1174 -18.4008 6.6766 0.874302 -0.855052 3.18055e-015 7.95139e-016 -1.59028e-015 3.75182e-031 6.75868e-015 -3.18055e-015 1.59028e-015 -2.38542e-015 -1.59028e-015 3.18055e-015 7.95139e-016 -1.59028e-015 0.0129618 0.00231209 -8.86133e-005 3.18055e-015 4.77083e-015 -3.18055e-015 3.18055e-015 7.95139e-016 -1.59028e-015 0.0163569 0.00302731 -0.000876826 -4.77083e-015 -5.1684e-015 -2.38542e-015 3.18055e-015 7.95139e-016 -1.59028e-015 0.0146226 0.00368108 -0.00328246 2.34279e-006 -1.09441e-006 9.19329e-008 3.18055e-015 7.95139e-016 -1.59028e-015 3.75182e-031 6.75868e-015 -3.18055e-015 1.59028e-015 -2.38542e-015 -1.59028e-015 -17.3981 -19.9096 -15.034 -165.6 51.2667 168.719 -10.3394 47.1557 -12.3081 -2.66911e-006 8.20997e-006 2.77166e-006 17.394 -19.9102 15.0294 165.599 51.2663 -168.722 10.3382 47.1553 12.3047 3.18055e-015 -5.217e-006 -6.36111e-015 
